<?xml version="1.0" standalone="no"?>
<!DOCTYPE svg PUBLIC "-//W3C//DTD SVG 20010904//EN"
 "http://www.w3.org/TR/2001/REC-SVG-20010904/DTD/svg10.dtd">
<svg version="1.0" xmlns="http://www.w3.org/2000/svg"
 width="400.000000pt" height="400.000000pt" viewBox="0 0 400.000000 400.000000"
 preserveAspectRatio="xMidYMid meet">
<metadata>
Created by potrace 1.14, written by Peter Selinger 2001-2017
</metadata>
<g transform="translate(0.000000,400.000000) scale(0.100000,-0.100000)"
fill="#000000" stroke="none">
<path d="M2328 3615 c-2 -1 -37 -5 -78 -8 -202 -16 -437 -104 -625 -234 -109
-76 -268 -238 -343 -351 -120 -181 -197 -387 -220 -592 -9 -75 -8 -251 1 -329
25 -207 114 -432 243 -611 51 -72 140 -170 153 -170 3 0 18 19 32 43 15 23 76
118 137 211 l110 170 -22 32 c-12 20 -25 29 -30 24 -5 -5 -59 -86 -121 -181
-61 -94 -115 -172 -120 -173 -22 -3 -164 212 -200 301 l-16 40 115 179 c63 98
118 184 123 189 4 6 14 22 21 36 8 14 23 38 35 53 l22 27 195 -332 c107 -182
200 -338 206 -346 9 -13 14 -13 42 4 l31 19 -85 145 c-46 79 -82 149 -80 156
3 6 63 101 135 210 71 109 172 263 224 343 52 79 99 146 103 147 5 2 18 -13
29 -33 18 -32 340 -531 440 -681 l41 -62 54 107 c30 59 65 126 78 149 l24 43
155 -238 c86 -130 161 -246 167 -257 6 -11 13 -22 16 -25 3 -3 31 -45 63 -93
l58 -88 40 48 c94 114 182 305 226 496 23 96 27 135 27 277 1 91 -3 185 -7
210 -5 25 -10 57 -12 71 -13 78 -63 218 -115 324 -221 448 -660 732 -1158 749
-61 2 -113 2 -114 1z"/>
<path d="M2994 1772 c-72 -92 -72 -189 0 -266 31 -35 43 -28 81 47 38 78 29
152 -28 212 l-32 34 -21 -27z"/>
<path d="M2766 1534 c10 -101 76 -168 178 -180 37 -5 44 -3 48 14 8 28 -24
118 -52 147 -31 33 -83 56 -135 61 l-44 3 5 -45z"/>
<path d="M3203 1570 c-83 -19 -137 -82 -150 -175 l-6 -47 48 5 c102 13 170 78
182 175 6 50 5 52 -18 51 -13 -1 -38 -4 -56 -9z"/>
<path d="M2175 1490 c-3 -6 -11 -8 -16 -4 -19 12 -124 -69 -234 -180 -83 -83
-117 -111 -137 -112 -16 -1 -37 -2 -47 -3 -20 -1 -51 -26 -51 -41 0 -5 18 -10
41 -12 l41 -3 -26 -30 c-45 -52 -72 -113 -60 -132 19 -31 32 -25 70 34 20 32
50 75 66 95 l29 37 74 -2 c41 -1 75 -3 75 -4 0 -2 -18 -42 -40 -89 -22 -48
-40 -91 -40 -96 0 -12 49 -1 69 15 11 10 131 249 131 262 0 2 15 37 34 77 56
121 68 155 64 174 -4 21 -33 31 -43 14z m-59 -119 c-14 -27 -39 -78 -55 -114
l-30 -66 -60 2 c-33 1 -63 5 -66 8 -6 7 214 219 227 219 5 0 -3 -22 -16 -49z"/>
<path d="M410 1479 c-99 -26 -180 -91 -164 -132 13 -34 68 -24 83 15 23 61
199 94 284 53 109 -52 99 -160 -25 -269 -86 -76 -249 -140 -289 -115 -13 7 20
62 163 276 37 56 68 105 68 108 0 3 -15 5 -32 5 -31 0 -39 -9 -124 -133 -100
-145 -152 -233 -159 -268 -8 -40 25 -56 102 -52 299 18 558 321 397 465 -52
46 -213 71 -304 47z"/>
<path d="M1550 1368 c-20 -22 -27 -53 -12 -61 30 -18 91 55 61 74 -21 13 -26
11 -49 -13z"/>
<path d="M1348 1280 c-10 -6 -16 -22 -16 -40 1 -20 -13 -51 -38 -88 -38 -55
-107 -132 -119 -132 -12 0 8 66 41 136 19 39 34 76 34 82 0 29 -43 0 -101 -69
-97 -113 -122 -139 -127 -134 -2 2 19 49 47 104 50 97 51 100 31 111 -17 9
-27 7 -53 -12 -17 -12 -40 -32 -49 -43 -15 -18 -15 -21 -2 -32 14 -10 13 -16
-6 -52 -11 -23 -25 -39 -30 -36 -5 3 -22 -6 -37 -20 -37 -34 -105 -59 -138
-51 -41 10 -27 37 38 75 31 19 57 39 57 46 0 17 -33 25 -53 14 -9 -6 -18 -5
-22 0 -3 6 13 23 36 38 29 19 44 24 47 15 9 -29 69 -1 77 37 10 55 -135 26
-192 -38 -25 -28 -32 -91 -10 -91 6 -1 0 -7 -15 -16 -74 -40 -59 -117 25 -131
39 -6 128 19 147 43 15 17 31 18 29 2 -3 -25 1 -36 17 -42 23 -9 66 17 119 71
45 47 46 47 40 18 -4 -16 -8 -35 -10 -42 -2 -7 3 -19 11 -28 32 -31 68 -15
144 65 91 95 146 204 118 237 -12 15 -17 16 -40 3z"/>
<path d="M3073 1255 c-18 -7 -53 -33 -80 -57 -26 -24 -43 -36 -36 -28 19 25
23 68 7 81 -20 16 -55 4 -110 -37 -45 -35 -46 -35 -27 -7 35 51 36 53 9 53
-36 0 -66 -37 -132 -166 -50 -96 -57 -116 -44 -124 8 -5 18 -10 22 -10 4 0 32
33 62 74 30 41 76 95 103 120 82 79 84 60 7 -77 -45 -79 -54 -101 -43 -108 24
-15 33 -10 74 43 50 65 172 188 186 188 5 0 -4 -20 -21 -45 -45 -65 -73 -133
-66 -160 7 -27 53 -49 87 -40 13 3 41 20 62 38 32 26 38 38 35 62 -3 25 -5 27
-18 14 -54 -52 -110 -76 -110 -47 0 7 25 54 56 106 52 86 56 95 44 118 -15 27
-23 29 -67 9z"/>
<path d="M1450 1234 c-20 -17 -29 -32 -25 -43 3 -10 -13 -52 -35 -95 -22 -42
-40 -83 -40 -91 0 -19 48 -55 74 -55 31 0 98 42 115 71 8 15 11 34 7 45 -7 18
-8 18 -24 -1 -39 -47 -102 -72 -102 -41 0 7 25 57 56 110 31 54 54 103 50 111
-8 23 -41 18 -76 -11z"/>
<path d="M2228 1243 c-15 -17 -69 -105 -131 -215 -26 -44 -26 -48 -9 -57 22
-12 35 -4 67 40 31 42 177 190 183 185 2 -2 -15 -38 -37 -78 -48 -87 -53 -130
-17 -153 27 -18 70 -12 98 12 15 13 19 13 38 -5 49 -46 156 14 233 131 19 29
37 64 40 78 7 27 -10 60 -34 66 -8 1 -26 5 -40 9 -59 13 -175 -84 -208 -175
-18 -49 -66 -87 -90 -72 -18 12 -9 37 50 127 56 85 60 117 17 122 -28 3 -65
-15 -112 -57 l-28 -26 21 35 c11 19 21 38 21 43 0 14 -47 7 -62 -10z m392 -48
c16 -19 -6 -65 -60 -124 -100 -110 -145 -60 -56 63 20 26 83 76 97 76 4 0 12
-7 19 -15z"/>
<path d="M1508 873 c-5 -29 -2 -203 3 -203 65 0 105 93 69 159 -10 19 -69 56
-72 44z m45 -40 c25 -29 27 -77 5 -113 -10 -18 -22 -30 -25 -27 -9 9 -13 157
-4 157 4 0 15 -8 24 -17z"/>
<path d="M1938 808 l-3 -73 -14 58 c-15 60 -34 71 -37 21 -1 -16 -2 -42 -4
-59 l-2 -30 -8 30 c-5 17 -10 45 -12 64 -3 19 -9 36 -16 39 -6 2 -9 -6 -7 -20
2 -13 6 -44 10 -71 7 -58 21 -97 35 -97 5 0 10 12 11 28 0 15 4 35 8 45 5 14
10 7 19 -28 6 -25 16 -45 21 -45 18 0 30 193 11 205 -5 3 -10 -24 -12 -67z"/>
<path d="M2409 810 c0 -51 -3 -69 -9 -55 -5 11 -9 31 -9 45 -1 28 -17 58 -25
49 -3 -3 -8 -30 -11 -59 -6 -57 -14 -78 -16 -42 -1 12 -3 27 -4 32 -1 6 -3 26
-4 45 0 19 -6 35 -12 35 -8 0 -9 -20 -5 -62 12 -125 39 -167 52 -81 l8 48 13
-47 c8 -27 18 -48 23 -48 20 0 31 183 12 202 -9 9 -12 -5 -13 -62z"/>
<path d="M2158 824 c-5 -4 -8 -15 -8 -25 0 -9 -6 -20 -12 -22 -10 -4 -10 -6 0
-6 8 -1 12 -17 12 -45 0 -25 5 -48 10 -51 6 -4 10 13 10 44 0 30 5 51 13 54 9
4 9 8 1 14 -7 4 -13 16 -15 26 -2 11 -7 15 -11 11z"/>
<path d="M1980 800 c0 -5 5 -10 10 -10 6 0 10 5 10 10 0 6 -4 10 -10 10 -5 0
-10 -4 -10 -10z"/>
<path d="M2520 800 c0 -5 5 -10 10 -10 6 0 10 5 10 10 0 6 -4 10 -10 10 -5 0
-10 -4 -10 -10z"/>
<path d="M2706 801 c-4 -5 -2 -12 3 -15 5 -4 12 -2 15 3 4 5 2 12 -3 15 -5 4
-12 2 -15 -3z"/>
<path d="M1674 775 c-18 -13 -18 -14 4 -44 26 -36 28 -45 6 -37 -10 4 -14 1
-11 -6 4 -14 53 -17 80 -5 10 5 17 4 17 -3 0 -6 4 -9 9 -6 11 7 -11 111 -24
111 -5 0 -17 -20 -27 -45 -9 -25 -17 -38 -17 -29 -1 9 -8 22 -16 29 -20 16
-19 28 3 32 11 2 13 6 6 10 -6 4 -20 1 -30 -7z m73 -62 c-3 -10 -5 -4 -5 12 0
17 2 24 5 18 2 -7 2 -21 0 -30z"/>
<path d="M2028 783 c-24 -6 -23 -25 2 -53 26 -30 25 -40 -2 -40 -26 0 -19 -9
10 -15 12 -2 24 1 28 7 4 7 10 5 16 -3 8 -11 11 -11 15 -1 4 10 8 10 21 0 14
-12 15 -7 9 41 -8 70 -21 82 -41 42 -9 -17 -16 -33 -16 -36 1 -18 -3 -17 -20
5 -24 31 -25 38 -2 42 9 2 13 6 7 9 -5 3 -18 4 -27 2z m75 -53 c-3 -12 -8 -19
-11 -16 -5 6 5 36 12 36 2 0 2 -9 -1 -20z"/>
<path d="M2212 763 c-21 -55 -23 -70 -8 -82 10 -9 16 -9 21 -1 5 8 10 8 20 0
10 -8 12 -1 8 37 -7 64 -26 85 -41 46z"/>
<path d="M2485 780 c-3 -5 -11 -7 -18 -4 -8 3 -12 -10 -12 -45 0 -46 13 -85
16 -48 1 10 3 22 4 27 1 6 3 19 4 29 1 13 8 18 24 17 19 -1 22 -6 19 -32 -2
-18 1 -35 7 -38 7 -5 11 8 11 38 0 34 -4 46 -15 46 -8 0 -15 5 -15 10 0 13
-17 13 -25 0z"/>
<path d="M2559 770 c-5 -56 -2 -94 8 -97 7 -3 11 10 11 33 0 20 6 41 12 48 10
8 11 8 6 -1 -8 -15 3 -83 14 -83 6 0 7 75 1 110 -2 13 -51 4 -52 -10z"/>
<path d="M2646 769 c-22 -32 -22 -99 0 -99 12 0 14 -5 9 -17 -17 -40 -17 -73
0 -79 27 -11 38 11 36 70 -1 30 3 57 9 61 5 3 10 -1 10 -9 0 -8 4 -18 10 -21
5 -3 9 13 8 40 0 25 -4 48 -9 51 -9 5 -13 -9 -10 -35 2 -7 -3 -11 -10 -9 -7 2
-14 15 -16 28 -6 37 -19 44 -37 19z m17 -41 c-7 -43 -13 -49 -13 -11 0 25 6
43 16 43 1 0 0 -15 -3 -32z"/>
<path d="M2747 770 c-5 -21 -4 -65 1 -92 1 -5 6 -8 11 -8 4 0 6 11 4 24 -3 13
0 32 6 43 9 16 11 15 12 -9 3 -47 4 -51 14 -55 6 -2 9 16 7 44 -4 67 -9 78
-26 64 -11 -9 -15 -9 -19 1 -2 7 -7 2 -10 -12z"/>
<path d="M2833 772 c-30 -49 -22 -120 11 -93 12 10 16 10 16 2 0 -7 5 -9 10
-6 6 4 8 10 6 14 -3 4 -6 24 -8 45 -3 44 -19 62 -35 38z m10 -52 c-3 -12 -8
-19 -11 -16 -5 6 5 36 12 36 2 0 2 -9 -1 -20z"/>
<path d="M2890 773 c-6 -62 -2 -103 9 -103 5 0 9 16 9 36 0 20 4 40 10 46 6 6
9 1 9 -14 -1 -47 3 -68 13 -68 10 0 8 106 -3 116 -4 4 -13 2 -21 -5 -11 -9
-15 -9 -19 1 -3 7 -6 3 -7 -9z"/>
<path d="M2970 771 c-19 -37 -10 -101 16 -101 30 0 47 83 22 108 -17 17 -26
15 -38 -7z m30 -41 c0 -44 -15 -54 -22 -16 -4 22 6 56 17 56 3 0 5 -18 5 -40z"/>
<path d="M3038 784 c-10 -18 -3 -107 9 -111 7 -3 9 3 6 16 -3 10 0 28 6 38 9
15 10 14 11 -14 0 -41 18 -52 25 -16 8 35 25 74 24 53 -3 -41 2 -80 10 -80 5
0 8 26 6 58 -2 59 -15 70 -42 35 -12 -15 -13 -15 -13 1 0 10 -5 14 -11 10 -6
-3 -15 -1 -19 6 -4 7 -10 8 -12 4z"/>
<path d="M1615 770 c-14 -23 -14 -56 1 -78 12 -19 18 -21 30 -11 8 6 14 16 14
21 0 6 -6 6 -14 -1 -20 -17 -28 9 -10 34 8 10 14 25 14 32 0 15 -26 18 -35 3z"/>
<path d="M1980 733 c0 -21 5 -45 10 -53 7 -11 10 -2 10 32 0 26 -4 50 -10 53
-6 4 -10 -9 -10 -32z"/>
</g>
</svg>
